<mxfile host="app.diagrams.net" modified="2023-10-26T08:41:07.161Z" agent="Mozilla/5.0 (Macintosh; Intel Mac OS X 10_15_7) AppleWebKit/537.36 (KHTML, like Gecko) Chrome/118.0.0.0 Safari/537.36" etag="opi3LS1EcneWo-kP4NfP" version="22.0.8" type="github">
  <diagram id="C5RBs43oDa-KdzZeNtuy" name="Page-1">
    <mxGraphModel dx="1233" dy="236" grid="1" gridSize="10" guides="1" tooltips="1" connect="1" arrows="1" fold="1" page="1" pageScale="1" pageWidth="827" pageHeight="1169" math="0" shadow="0">
      <root>
        <mxCell id="WIyWlLk6GJQsqaUBKTNV-0" />
        <mxCell id="WIyWlLk6GJQsqaUBKTNV-1" parent="WIyWlLk6GJQsqaUBKTNV-0" />
        <mxCell id="EKX3NH5y6yaSZ-MIIbft-27" value="" style="endArrow=classic;html=1;rounded=0;exitX=0.907;exitY=0.963;exitDx=0;exitDy=0;entryX=0;entryY=0.5;entryDx=0;entryDy=0;exitPerimeter=0;" edge="1" parent="WIyWlLk6GJQsqaUBKTNV-1" source="EKX3NH5y6yaSZ-MIIbft-18" target="EKX3NH5y6yaSZ-MIIbft-22">
          <mxGeometry width="50" height="50" relative="1" as="geometry">
            <mxPoint x="330" y="330" as="sourcePoint" />
            <mxPoint x="290" y="440" as="targetPoint" />
          </mxGeometry>
        </mxCell>
        <mxCell id="EKX3NH5y6yaSZ-MIIbft-25" value="" style="endArrow=classic;html=1;rounded=0;entryX=0;entryY=0.5;entryDx=0;entryDy=0;" edge="1" parent="WIyWlLk6GJQsqaUBKTNV-1" target="EKX3NH5y6yaSZ-MIIbft-21">
          <mxGeometry width="50" height="50" relative="1" as="geometry">
            <mxPoint x="240" y="383" as="sourcePoint" />
            <mxPoint x="380" y="280" as="targetPoint" />
          </mxGeometry>
        </mxCell>
        <mxCell id="EKX3NH5y6yaSZ-MIIbft-6" value="" style="edgeStyle=orthogonalEdgeStyle;rounded=0;orthogonalLoop=1;jettySize=auto;html=1;" edge="1" parent="WIyWlLk6GJQsqaUBKTNV-1" source="WIyWlLk6GJQsqaUBKTNV-7" target="EKX3NH5y6yaSZ-MIIbft-5">
          <mxGeometry relative="1" as="geometry" />
        </mxCell>
        <mxCell id="WIyWlLk6GJQsqaUBKTNV-7" value="INT variables" style="rounded=1;whiteSpace=wrap;html=1;fontSize=12;glass=0;strokeWidth=1;shadow=0;" parent="WIyWlLk6GJQsqaUBKTNV-1" vertex="1">
          <mxGeometry x="140" y="130" width="120" height="40" as="geometry" />
        </mxCell>
        <mxCell id="EKX3NH5y6yaSZ-MIIbft-3" value="" style="endArrow=classic;html=1;rounded=0;exitX=0.5;exitY=1;exitDx=0;exitDy=0;entryX=0.5;entryY=0;entryDx=0;entryDy=0;" edge="1" parent="WIyWlLk6GJQsqaUBKTNV-1" source="EKX3NH5y6yaSZ-MIIbft-4" target="WIyWlLk6GJQsqaUBKTNV-7">
          <mxGeometry width="50" height="50" relative="1" as="geometry">
            <mxPoint x="210" y="100" as="sourcePoint" />
            <mxPoint x="380" y="260" as="targetPoint" />
          </mxGeometry>
        </mxCell>
        <mxCell id="EKX3NH5y6yaSZ-MIIbft-4" value="START" style="ellipse;whiteSpace=wrap;html=1;fillColor=#006600;fontStyle=1;fontColor=#FFFFFF;" vertex="1" parent="WIyWlLk6GJQsqaUBKTNV-1">
          <mxGeometry x="140" y="60" width="120" height="40" as="geometry" />
        </mxCell>
        <mxCell id="EKX3NH5y6yaSZ-MIIbft-9" value="" style="edgeStyle=orthogonalEdgeStyle;rounded=0;orthogonalLoop=1;jettySize=auto;html=1;" edge="1" parent="WIyWlLk6GJQsqaUBKTNV-1" source="EKX3NH5y6yaSZ-MIIbft-5" target="EKX3NH5y6yaSZ-MIIbft-7">
          <mxGeometry relative="1" as="geometry" />
        </mxCell>
        <mxCell id="EKX3NH5y6yaSZ-MIIbft-5" value="&lt;font style=&quot;font-size: 9px;&quot;&gt;&amp;nbsp; &amp;nbsp; DISPLAY WELCOME&amp;nbsp; &amp;nbsp; &amp;nbsp; &amp;nbsp;MESSAGE &amp;amp; FARE&amp;nbsp; &amp;nbsp; &amp;nbsp;&lt;span style=&quot;white-space: pre;&quot;&gt;&#x9;&lt;/span&gt;DESCRIPTION&lt;/font&gt;" style="shape=dataStorage;whiteSpace=wrap;html=1;fixedSize=1;fillColor=#007FFF;fontColor=#FFFFFF;strokeColor=#FFFFFF;align=left;" vertex="1" parent="WIyWlLk6GJQsqaUBKTNV-1">
          <mxGeometry x="140" y="190" width="120" height="50" as="geometry" />
        </mxCell>
        <mxCell id="EKX3NH5y6yaSZ-MIIbft-20" value="" style="edgeStyle=orthogonalEdgeStyle;rounded=0;orthogonalLoop=1;jettySize=auto;html=1;exitX=0.54;exitY=1.021;exitDx=0;exitDy=0;exitPerimeter=0;entryX=0;entryY=0.5;entryDx=0;entryDy=0;strokeColor=#FF00FF;strokeWidth=2;" edge="1" parent="WIyWlLk6GJQsqaUBKTNV-1" source="EKX3NH5y6yaSZ-MIIbft-15" target="EKX3NH5y6yaSZ-MIIbft-18">
          <mxGeometry relative="1" as="geometry">
            <Array as="points">
              <mxPoint x="79" y="385" />
            </Array>
          </mxGeometry>
        </mxCell>
        <mxCell id="EKX3NH5y6yaSZ-MIIbft-94" value="" style="edgeStyle=orthogonalEdgeStyle;rounded=0;orthogonalLoop=1;jettySize=auto;html=1;" edge="1" parent="WIyWlLk6GJQsqaUBKTNV-1" source="EKX3NH5y6yaSZ-MIIbft-7" target="EKX3NH5y6yaSZ-MIIbft-15">
          <mxGeometry relative="1" as="geometry" />
        </mxCell>
        <mxCell id="EKX3NH5y6yaSZ-MIIbft-7" value="VEHICLE?" style="rhombus;whiteSpace=wrap;html=1;strokeColor=#F27DFF;strokeWidth=3;" vertex="1" parent="WIyWlLk6GJQsqaUBKTNV-1">
          <mxGeometry x="160" y="260" width="80" height="80" as="geometry" />
        </mxCell>
        <mxCell id="EKX3NH5y6yaSZ-MIIbft-11" value="" style="endArrow=classic;html=1;rounded=0;exitX=1;exitY=0.5;exitDx=0;exitDy=0;entryX=0;entryY=0.5;entryDx=0;entryDy=0;" edge="1" parent="WIyWlLk6GJQsqaUBKTNV-1" source="EKX3NH5y6yaSZ-MIIbft-7" target="EKX3NH5y6yaSZ-MIIbft-16">
          <mxGeometry width="50" height="50" relative="1" as="geometry">
            <mxPoint x="250" y="330" as="sourcePoint" />
            <mxPoint x="290" y="300" as="targetPoint" />
          </mxGeometry>
        </mxCell>
        <mxCell id="EKX3NH5y6yaSZ-MIIbft-12" value="Y" style="text;strokeColor=none;align=center;fillColor=none;html=1;verticalAlign=middle;whiteSpace=wrap;rounded=0;rotation=0;fontStyle=1;fontColor=#009900;" vertex="1" parent="WIyWlLk6GJQsqaUBKTNV-1">
          <mxGeometry x="134.54000000000002" y="290" width="20" height="10" as="geometry" />
        </mxCell>
        <mxCell id="EKX3NH5y6yaSZ-MIIbft-14" value="N" style="text;strokeColor=none;align=center;fillColor=none;html=1;verticalAlign=middle;whiteSpace=wrap;rounded=0;rotation=0;fontColor=#FF6666;" vertex="1" parent="WIyWlLk6GJQsqaUBKTNV-1">
          <mxGeometry x="260" y="290" width="10" height="10" as="geometry" />
        </mxCell>
        <mxCell id="EKX3NH5y6yaSZ-MIIbft-15" value="SET &lt;br&gt;vehicleYes = true" style="rounded=1;whiteSpace=wrap;html=1;strokeColor=#3399FF;strokeWidth=2;" vertex="1" parent="WIyWlLk6GJQsqaUBKTNV-1">
          <mxGeometry x="24.54000000000002" y="280" width="100" height="40" as="geometry" />
        </mxCell>
        <mxCell id="EKX3NH5y6yaSZ-MIIbft-18" value="&lt;font color=&quot;#ffffff&quot; style=&quot;font-size: 11px;&quot;&gt;&amp;nbsp;How many adults?&lt;/font&gt;" style="shape=dataStorage;whiteSpace=wrap;html=1;fixedSize=1;fillColor=#3399FF;align=left;strokeColor=#FFFFFF;" vertex="1" parent="WIyWlLk6GJQsqaUBKTNV-1">
          <mxGeometry x="140" y="360" width="120" height="50" as="geometry" />
        </mxCell>
        <mxCell id="EKX3NH5y6yaSZ-MIIbft-21" value="SET&amp;nbsp;&lt;br&gt;adultsOnTrip = 0" style="rounded=1;whiteSpace=wrap;html=1;strokeWidth=2;strokeColor=#3399FF;" vertex="1" parent="WIyWlLk6GJQsqaUBKTNV-1">
          <mxGeometry x="300" y="365" width="100" height="40" as="geometry" />
        </mxCell>
        <mxCell id="EKX3NH5y6yaSZ-MIIbft-22" value="SET&amp;nbsp;&lt;br&gt;&lt;font style=&quot;font-size: 11px;&quot;&gt;adultsOnTrip 1-100&lt;/font&gt;" style="rounded=1;whiteSpace=wrap;html=1;strokeColor=#3399FF;strokeWidth=2;" vertex="1" parent="WIyWlLk6GJQsqaUBKTNV-1">
          <mxGeometry x="300" y="422.5" width="100" height="40" as="geometry" />
        </mxCell>
        <mxCell id="EKX3NH5y6yaSZ-MIIbft-28" value="INVALID" style="rounded=1;whiteSpace=wrap;html=1;fillStyle=hatch;fillColor=#696969;" vertex="1" parent="WIyWlLk6GJQsqaUBKTNV-1">
          <mxGeometry x="430" y="320" width="100" height="40" as="geometry" />
        </mxCell>
        <mxCell id="EKX3NH5y6yaSZ-MIIbft-29" value="INVALID" style="rounded=1;whiteSpace=wrap;html=1;shadow=0;fillColor=#696969;fillStyle=hatch;" vertex="1" parent="WIyWlLk6GJQsqaUBKTNV-1">
          <mxGeometry x="370" y="210" width="100" height="40" as="geometry" />
        </mxCell>
        <mxCell id="EKX3NH5y6yaSZ-MIIbft-30" value="" style="endArrow=classic;html=1;rounded=0;fillColor=#f8cecc;strokeColor=#b85450;entryX=0;entryY=1;entryDx=0;entryDy=0;" edge="1" target="EKX3NH5y6yaSZ-MIIbft-29" parent="WIyWlLk6GJQsqaUBKTNV-1" source="EKX3NH5y6yaSZ-MIIbft-7">
          <mxGeometry width="50" height="50" relative="1" as="geometry">
            <mxPoint x="250" y="270" as="sourcePoint" />
            <mxPoint x="370" y="260" as="targetPoint" />
            <Array as="points">
              <mxPoint x="260" y="280" />
            </Array>
          </mxGeometry>
        </mxCell>
        <mxCell id="EKX3NH5y6yaSZ-MIIbft-31" value="&lt;font color=&quot;#ff5533&quot;&gt;&quot;a&quot;&lt;/font&gt;" style="text;strokeColor=none;align=center;fillColor=none;html=1;verticalAlign=middle;whiteSpace=wrap;rounded=0;rotation=-15;" vertex="1" parent="WIyWlLk6GJQsqaUBKTNV-1">
          <mxGeometry x="252.26999999999998" y="270" width="10" height="10" as="geometry" />
        </mxCell>
        <mxCell id="EKX3NH5y6yaSZ-MIIbft-33" value="&lt;font color=&quot;#ff5533&quot;&gt;&quot;a&quot;&lt;/font&gt;" style="text;strokeColor=none;align=center;fillColor=none;html=1;verticalAlign=middle;whiteSpace=wrap;rounded=0;rotation=0;" vertex="1" parent="WIyWlLk6GJQsqaUBKTNV-1">
          <mxGeometry x="275" y="350" width="10" height="5" as="geometry" />
        </mxCell>
        <mxCell id="EKX3NH5y6yaSZ-MIIbft-34" value="1-100" style="text;strokeColor=none;align=center;fillColor=none;html=1;verticalAlign=middle;whiteSpace=wrap;rounded=0;rotation=35;fontStyle=1;fontColor=#009900;" vertex="1" parent="WIyWlLk6GJQsqaUBKTNV-1">
          <mxGeometry x="256.32" y="410" width="40" height="15" as="geometry" />
        </mxCell>
        <mxCell id="EKX3NH5y6yaSZ-MIIbft-35" value="0" style="text;strokeColor=none;align=center;fillColor=none;html=1;verticalAlign=middle;whiteSpace=wrap;rounded=0;rotation=0;fontStyle=1;fontColor=#009900;" vertex="1" parent="WIyWlLk6GJQsqaUBKTNV-1">
          <mxGeometry x="262.27000000000004" y="370" width="5.46" height="10" as="geometry" />
        </mxCell>
        <mxCell id="EKX3NH5y6yaSZ-MIIbft-40" value="" style="edgeStyle=segmentEdgeStyle;endArrow=classic;html=1;curved=0;rounded=0;endSize=8;startSize=8;strokeColor=#4D4D4D;strokeWidth=2;dashed=1;exitX=0;exitY=0.25;exitDx=0;exitDy=0;" edge="1" parent="WIyWlLk6GJQsqaUBKTNV-1" source="EKX3NH5y6yaSZ-MIIbft-28">
          <mxGeometry width="50" height="50" relative="1" as="geometry">
            <mxPoint x="405" y="340" as="sourcePoint" />
            <mxPoint x="250.02000000000004" y="360" as="targetPoint" />
            <Array as="points">
              <mxPoint x="250" y="330" />
            </Array>
          </mxGeometry>
        </mxCell>
        <mxCell id="EKX3NH5y6yaSZ-MIIbft-41" value="" style="edgeStyle=segmentEdgeStyle;endArrow=classic;html=1;curved=0;rounded=0;endSize=8;startSize=8;exitX=0.85;exitY=0.609;exitDx=0;exitDy=0;exitPerimeter=0;strokeColor=#b85450;fillColor=#f8cecc;" edge="1" parent="WIyWlLk6GJQsqaUBKTNV-1">
          <mxGeometry width="50" height="50" relative="1" as="geometry">
            <mxPoint x="257" y="360.00000000000006" as="sourcePoint" />
            <mxPoint x="429" y="350" as="targetPoint" />
            <Array as="points">
              <mxPoint x="295" y="360" />
              <mxPoint x="295" y="350" />
              <mxPoint x="429" y="350" />
            </Array>
          </mxGeometry>
        </mxCell>
        <mxCell id="EKX3NH5y6yaSZ-MIIbft-56" value="" style="edgeStyle=orthogonalEdgeStyle;rounded=0;orthogonalLoop=1;jettySize=auto;html=1;" edge="1" parent="WIyWlLk6GJQsqaUBKTNV-1" source="EKX3NH5y6yaSZ-MIIbft-48" target="EKX3NH5y6yaSZ-MIIbft-54">
          <mxGeometry relative="1" as="geometry" />
        </mxCell>
        <mxCell id="EKX3NH5y6yaSZ-MIIbft-48" value="&lt;font color=&quot;#ffffff&quot; style=&quot;font-size: 10px;&quot;&gt;&amp;nbsp; How many seniors?&lt;/font&gt;" style="shape=dataStorage;whiteSpace=wrap;html=1;fixedSize=1;fillColor=#3399FF;align=left;strokeColor=#FFFFFF;" vertex="1" parent="WIyWlLk6GJQsqaUBKTNV-1">
          <mxGeometry x="140" y="460" width="120" height="50" as="geometry" />
        </mxCell>
        <mxCell id="EKX3NH5y6yaSZ-MIIbft-50" value="&lt;font color=&quot;#ffffff&quot; style=&quot;font-size: 10px;&quot;&gt;&amp;nbsp; How many youths?&lt;/font&gt;" style="shape=dataStorage;whiteSpace=wrap;html=1;fixedSize=1;fillColor=#3399FF;align=left;strokeColor=#FFFFFF;" vertex="1" parent="WIyWlLk6GJQsqaUBKTNV-1">
          <mxGeometry x="140" y="595" width="120" height="50" as="geometry" />
        </mxCell>
        <mxCell id="EKX3NH5y6yaSZ-MIIbft-52" value="SET&amp;nbsp;&lt;br&gt;seniorsOnTrip = 0" style="rounded=1;whiteSpace=wrap;html=1;strokeWidth=2;strokeColor=#3399FF;" vertex="1" parent="WIyWlLk6GJQsqaUBKTNV-1">
          <mxGeometry x="10" y="407.5" width="100" height="40" as="geometry" />
        </mxCell>
        <mxCell id="EKX3NH5y6yaSZ-MIIbft-53" value="INVALID" style="rounded=1;whiteSpace=wrap;html=1;fillStyle=hatch;fillColor=#696969;" vertex="1" parent="WIyWlLk6GJQsqaUBKTNV-1">
          <mxGeometry x="10" y="520" width="100" height="40" as="geometry" />
        </mxCell>
        <mxCell id="EKX3NH5y6yaSZ-MIIbft-54" value="SET&amp;nbsp;&lt;br&gt;&lt;font style=&quot;font-size: 10px;&quot;&gt;seniorsOnTrip 1-100&lt;/font&gt;" style="rounded=1;whiteSpace=wrap;html=1;strokeColor=#3399FF;strokeWidth=2;" vertex="1" parent="WIyWlLk6GJQsqaUBKTNV-1">
          <mxGeometry x="10" y="465" width="100" height="40" as="geometry" />
        </mxCell>
        <mxCell id="EKX3NH5y6yaSZ-MIIbft-57" value="" style="endArrow=classic;html=1;rounded=0;exitX=0.13;exitY=0.961;exitDx=0;exitDy=0;exitPerimeter=0;entryX=1;entryY=0.5;entryDx=0;entryDy=0;fillColor=#f8cecc;strokeColor=#b85450;" edge="1" parent="WIyWlLk6GJQsqaUBKTNV-1" source="EKX3NH5y6yaSZ-MIIbft-48" target="EKX3NH5y6yaSZ-MIIbft-53">
          <mxGeometry width="50" height="50" relative="1" as="geometry">
            <mxPoint x="110" y="520" as="sourcePoint" />
            <mxPoint x="160" y="470" as="targetPoint" />
          </mxGeometry>
        </mxCell>
        <mxCell id="EKX3NH5y6yaSZ-MIIbft-58" value="" style="endArrow=classic;html=1;rounded=0;exitX=0.112;exitY=0.083;exitDx=0;exitDy=0;exitPerimeter=0;entryX=1.04;entryY=0.573;entryDx=0;entryDy=0;entryPerimeter=0;" edge="1" parent="WIyWlLk6GJQsqaUBKTNV-1" source="EKX3NH5y6yaSZ-MIIbft-48" target="EKX3NH5y6yaSZ-MIIbft-52">
          <mxGeometry width="50" height="50" relative="1" as="geometry">
            <mxPoint x="110" y="530" as="sourcePoint" />
            <mxPoint x="120" y="450" as="targetPoint" />
          </mxGeometry>
        </mxCell>
        <mxCell id="EKX3NH5y6yaSZ-MIIbft-59" value="0" style="text;strokeColor=none;align=center;fillColor=none;html=1;verticalAlign=middle;whiteSpace=wrap;rounded=0;rotation=35;fontStyle=1;fontColor=#009900;" vertex="1" parent="WIyWlLk6GJQsqaUBKTNV-1">
          <mxGeometry x="134.54000000000005" y="437.5" width="5.46" height="10" as="geometry" />
        </mxCell>
        <mxCell id="EKX3NH5y6yaSZ-MIIbft-60" value="&lt;font style=&quot;font-size: 8px;&quot;&gt;1-100&lt;/font&gt;" style="text;strokeColor=none;align=center;fillColor=none;html=1;verticalAlign=middle;whiteSpace=wrap;rounded=0;rotation=0;fontStyle=1;fontColor=#009900;" vertex="1" parent="WIyWlLk6GJQsqaUBKTNV-1">
          <mxGeometry x="110" y="470" width="30" height="10" as="geometry" />
        </mxCell>
        <mxCell id="EKX3NH5y6yaSZ-MIIbft-62" value="&lt;font color=&quot;#ff5533&quot;&gt;&quot;a&quot;&lt;/font&gt;" style="text;strokeColor=none;align=center;fillColor=none;html=1;verticalAlign=middle;whiteSpace=wrap;rounded=0;rotation=-30;" vertex="1" parent="WIyWlLk6GJQsqaUBKTNV-1">
          <mxGeometry x="124.54" y="510" width="10" height="15" as="geometry" />
        </mxCell>
        <mxCell id="EKX3NH5y6yaSZ-MIIbft-63" value="" style="edgeStyle=segmentEdgeStyle;endArrow=classic;html=1;curved=0;rounded=0;endSize=8;startSize=8;exitX=1;exitY=1;exitDx=0;exitDy=0;dashed=1;strokeWidth=2;strokeColor=#4D4D4D;entryX=0.418;entryY=1.019;entryDx=0;entryDy=0;entryPerimeter=0;" edge="1" parent="WIyWlLk6GJQsqaUBKTNV-1" source="EKX3NH5y6yaSZ-MIIbft-53" target="EKX3NH5y6yaSZ-MIIbft-48">
          <mxGeometry width="50" height="50" relative="1" as="geometry">
            <mxPoint x="110" y="550" as="sourcePoint" />
            <mxPoint x="190" y="530" as="targetPoint" />
            <Array as="points">
              <mxPoint x="190" y="560" />
            </Array>
          </mxGeometry>
        </mxCell>
        <mxCell id="EKX3NH5y6yaSZ-MIIbft-64" value="" style="edgeStyle=segmentEdgeStyle;endArrow=classic;html=1;curved=0;rounded=0;endSize=8;startSize=8;exitX=0;exitY=0.5;exitDx=0;exitDy=0;strokeColor=#FF00FF;strokeWidth=2;" edge="1" parent="WIyWlLk6GJQsqaUBKTNV-1" source="EKX3NH5y6yaSZ-MIIbft-54" target="EKX3NH5y6yaSZ-MIIbft-50">
          <mxGeometry width="50" height="50" relative="1" as="geometry">
            <mxPoint x="50" y="630" as="sourcePoint" />
            <mxPoint x="100" y="580" as="targetPoint" />
            <Array as="points">
              <mxPoint y="485" />
              <mxPoint y="575" />
            </Array>
          </mxGeometry>
        </mxCell>
        <mxCell id="EKX3NH5y6yaSZ-MIIbft-65" value="" style="edgeStyle=segmentEdgeStyle;endArrow=classic;html=1;curved=0;rounded=0;endSize=8;startSize=8;entryX=0.192;entryY=0;entryDx=0;entryDy=0;entryPerimeter=0;strokeColor=#FF00FF;strokeWidth=2;" edge="1" parent="WIyWlLk6GJQsqaUBKTNV-1" target="EKX3NH5y6yaSZ-MIIbft-50">
          <mxGeometry width="50" height="50" relative="1" as="geometry">
            <mxPoint x="10" y="430" as="sourcePoint" />
            <mxPoint x="140" y="585" as="targetPoint" />
            <Array as="points">
              <mxPoint x="-10" y="430" />
              <mxPoint x="-10" y="585" />
              <mxPoint x="163" y="585" />
            </Array>
          </mxGeometry>
        </mxCell>
        <mxCell id="EKX3NH5y6yaSZ-MIIbft-88" style="edgeStyle=orthogonalEdgeStyle;rounded=0;orthogonalLoop=1;jettySize=auto;html=1;entryX=0.5;entryY=0;entryDx=0;entryDy=0;strokeColor=#FF00FF;strokeWidth=2;" edge="1" parent="WIyWlLk6GJQsqaUBKTNV-1" source="EKX3NH5y6yaSZ-MIIbft-68" target="EKX3NH5y6yaSZ-MIIbft-89">
          <mxGeometry relative="1" as="geometry">
            <mxPoint x="200" y="790" as="targetPoint" />
            <Array as="points">
              <mxPoint x="-19" y="620" />
              <mxPoint x="-19" y="790" />
              <mxPoint x="202" y="790" />
            </Array>
          </mxGeometry>
        </mxCell>
        <mxCell id="EKX3NH5y6yaSZ-MIIbft-68" value="SET&amp;nbsp;&lt;br&gt;youthsOnTrip = 0" style="rounded=1;whiteSpace=wrap;html=1;strokeWidth=2;strokeColor=#3399FF;" vertex="1" parent="WIyWlLk6GJQsqaUBKTNV-1">
          <mxGeometry x="10" y="600" width="100" height="40" as="geometry" />
        </mxCell>
        <mxCell id="EKX3NH5y6yaSZ-MIIbft-69" value="SET&amp;nbsp;&lt;br&gt;&lt;font style=&quot;font-size: 10px;&quot;&gt;youthsOnTrip 1-100&lt;/font&gt;" style="rounded=1;whiteSpace=wrap;html=1;strokeColor=#3399FF;strokeWidth=2;" vertex="1" parent="WIyWlLk6GJQsqaUBKTNV-1">
          <mxGeometry x="10" y="657.5" width="100" height="40" as="geometry" />
        </mxCell>
        <mxCell id="EKX3NH5y6yaSZ-MIIbft-70" value="INVALID" style="rounded=1;whiteSpace=wrap;html=1;fillStyle=hatch;fillColor=#696969;" vertex="1" parent="WIyWlLk6GJQsqaUBKTNV-1">
          <mxGeometry x="10" y="712.5" width="100" height="40" as="geometry" />
        </mxCell>
        <mxCell id="EKX3NH5y6yaSZ-MIIbft-71" value="0" style="text;strokeColor=none;align=center;fillColor=none;html=1;verticalAlign=middle;whiteSpace=wrap;rounded=0;rotation=0;fontStyle=1;fontColor=#009900;" vertex="1" parent="WIyWlLk6GJQsqaUBKTNV-1">
          <mxGeometry x="126.54" y="610" width="6" height="10" as="geometry" />
        </mxCell>
        <mxCell id="EKX3NH5y6yaSZ-MIIbft-72" value="&lt;font style=&quot;font-size: 8px;&quot;&gt;1-100&lt;/font&gt;" style="text;strokeColor=none;align=center;fillColor=none;html=1;verticalAlign=middle;whiteSpace=wrap;rounded=0;rotation=0;fontStyle=1;fontColor=#009900;" vertex="1" parent="WIyWlLk6GJQsqaUBKTNV-1">
          <mxGeometry x="123.40999999999998" y="635" width="27.73" height="10" as="geometry" />
        </mxCell>
        <mxCell id="EKX3NH5y6yaSZ-MIIbft-73" value="&lt;font color=&quot;#ff5533&quot;&gt;&quot;a&quot;&lt;/font&gt;" style="text;strokeColor=none;align=center;fillColor=none;html=1;verticalAlign=middle;whiteSpace=wrap;rounded=0;rotation=-60;" vertex="1" parent="WIyWlLk6GJQsqaUBKTNV-1">
          <mxGeometry x="108.33" y="697.5" width="26.21" height="15" as="geometry" />
        </mxCell>
        <mxCell id="EKX3NH5y6yaSZ-MIIbft-74" value="" style="endArrow=classic;html=1;rounded=0;exitX=0;exitY=0.5;exitDx=0;exitDy=0;entryX=1;entryY=0.5;entryDx=0;entryDy=0;" edge="1" parent="WIyWlLk6GJQsqaUBKTNV-1" source="EKX3NH5y6yaSZ-MIIbft-50" target="EKX3NH5y6yaSZ-MIIbft-68">
          <mxGeometry width="50" height="50" relative="1" as="geometry">
            <mxPoint x="157" y="654" as="sourcePoint" />
            <mxPoint x="118" y="620" as="targetPoint" />
          </mxGeometry>
        </mxCell>
        <mxCell id="EKX3NH5y6yaSZ-MIIbft-75" value="" style="edgeStyle=orthogonalEdgeStyle;rounded=0;orthogonalLoop=1;jettySize=auto;html=1;exitX=0.025;exitY=0.76;exitDx=0;exitDy=0;exitPerimeter=0;entryX=1.022;entryY=0.428;entryDx=0;entryDy=0;entryPerimeter=0;" edge="1" parent="WIyWlLk6GJQsqaUBKTNV-1" source="EKX3NH5y6yaSZ-MIIbft-50" target="EKX3NH5y6yaSZ-MIIbft-69">
          <mxGeometry relative="1" as="geometry">
            <mxPoint x="144" y="675" as="sourcePoint" />
            <mxPoint x="114" y="675" as="targetPoint" />
            <Array as="points">
              <mxPoint x="120" y="633" />
              <mxPoint x="120" y="675" />
            </Array>
          </mxGeometry>
        </mxCell>
        <mxCell id="EKX3NH5y6yaSZ-MIIbft-76" value="" style="endArrow=classic;html=1;rounded=0;exitX=0.205;exitY=0.992;exitDx=0;exitDy=0;exitPerimeter=0;entryX=1;entryY=0.5;entryDx=0;entryDy=0;fillColor=#f8cecc;strokeColor=#b85450;" edge="1" parent="WIyWlLk6GJQsqaUBKTNV-1" source="EKX3NH5y6yaSZ-MIIbft-50">
          <mxGeometry width="50" height="50" relative="1" as="geometry">
            <mxPoint x="160" y="698" as="sourcePoint" />
            <mxPoint x="114" y="730" as="targetPoint" />
          </mxGeometry>
        </mxCell>
        <mxCell id="EKX3NH5y6yaSZ-MIIbft-85" value="" style="edgeStyle=segmentEdgeStyle;endArrow=classic;html=1;curved=0;rounded=0;endSize=8;startSize=8;exitX=0.5;exitY=1;exitDx=0;exitDy=0;dashed=1;strokeWidth=2;strokeColor=#4D4D4D;entryX=0.808;entryY=1.012;entryDx=0;entryDy=0;entryPerimeter=0;" edge="1" parent="WIyWlLk6GJQsqaUBKTNV-1" source="EKX3NH5y6yaSZ-MIIbft-110" target="EKX3NH5y6yaSZ-MIIbft-89">
          <mxGeometry width="50" height="50" relative="1" as="geometry">
            <mxPoint x="110.33" y="977.5" as="sourcePoint" />
            <mxPoint x="210" y="860" as="targetPoint" />
            <Array as="points">
              <mxPoint x="350" y="935" />
              <mxPoint x="240" y="935" />
              <mxPoint x="240" y="861" />
            </Array>
          </mxGeometry>
        </mxCell>
        <mxCell id="EKX3NH5y6yaSZ-MIIbft-86" value="" style="edgeStyle=segmentEdgeStyle;endArrow=classic;html=1;curved=0;rounded=0;endSize=8;startSize=8;exitX=0;exitY=0.75;exitDx=0;exitDy=0;entryX=0.582;entryY=-0.083;entryDx=0;entryDy=0;entryPerimeter=0;strokeColor=#FF00FF;strokeWidth=2;" edge="1" parent="WIyWlLk6GJQsqaUBKTNV-1" source="EKX3NH5y6yaSZ-MIIbft-69" target="EKX3NH5y6yaSZ-MIIbft-89">
          <mxGeometry width="50" height="50" relative="1" as="geometry">
            <mxPoint x="-50" y="730" as="sourcePoint" />
            <mxPoint x="210" y="800" as="targetPoint" />
            <Array as="points">
              <mxPoint x="-10" y="688" />
              <mxPoint x="-10" y="780" />
              <mxPoint x="212" y="780" />
            </Array>
          </mxGeometry>
        </mxCell>
        <mxCell id="EKX3NH5y6yaSZ-MIIbft-117" value="" style="edgeStyle=orthogonalEdgeStyle;rounded=0;orthogonalLoop=1;jettySize=auto;html=1;exitX=0.831;exitY=0.446;exitDx=0;exitDy=0;exitPerimeter=0;" edge="1" parent="WIyWlLk6GJQsqaUBKTNV-1" source="EKX3NH5y6yaSZ-MIIbft-89" target="EKX3NH5y6yaSZ-MIIbft-109">
          <mxGeometry relative="1" as="geometry">
            <Array as="points">
              <mxPoint x="240" y="832" />
              <mxPoint x="240" y="834" />
            </Array>
          </mxGeometry>
        </mxCell>
        <mxCell id="EKX3NH5y6yaSZ-MIIbft-89" value="&lt;font color=&quot;#ffffff&quot; style=&quot;font-size: 10px;&quot;&gt;&amp;nbsp; &amp;nbsp;How many bikes?&lt;/font&gt;" style="shape=dataStorage;whiteSpace=wrap;html=1;fixedSize=1;fillColor=#3399FF;align=left;strokeColor=#FFFFFF;" vertex="1" parent="WIyWlLk6GJQsqaUBKTNV-1">
          <mxGeometry x="142.27" y="810" width="120" height="50" as="geometry" />
        </mxCell>
        <mxCell id="EKX3NH5y6yaSZ-MIIbft-16" value="SET&lt;br&gt;vehicleNo = false" style="rounded=1;whiteSpace=wrap;html=1;strokeColor=#3399FF;strokeWidth=2;" vertex="1" parent="WIyWlLk6GJQsqaUBKTNV-1">
          <mxGeometry x="300" y="280" width="97" height="40" as="geometry" />
        </mxCell>
        <mxCell id="EKX3NH5y6yaSZ-MIIbft-100" value="" style="edgeStyle=segmentEdgeStyle;endArrow=classic;html=1;curved=0;rounded=0;endSize=8;startSize=8;entryX=1;entryY=0;entryDx=0;entryDy=0;dashed=1;strokeWidth=2;strokeColor=#4D4D4D;" edge="1" parent="WIyWlLk6GJQsqaUBKTNV-1" target="EKX3NH5y6yaSZ-MIIbft-7">
          <mxGeometry width="50" height="50" relative="1" as="geometry">
            <mxPoint x="370" y="230" as="sourcePoint" />
            <mxPoint x="212" y="260" as="targetPoint" />
            <Array as="points">
              <mxPoint x="342" y="230" />
              <mxPoint x="342" y="250" />
              <mxPoint x="220" y="250" />
            </Array>
          </mxGeometry>
        </mxCell>
        <mxCell id="EKX3NH5y6yaSZ-MIIbft-102" value="" style="edgeStyle=segmentEdgeStyle;endArrow=classic;html=1;curved=0;rounded=0;endSize=8;startSize=8;entryX=0.75;entryY=0;entryDx=0;entryDy=0;exitX=0.034;exitY=0.983;exitDx=0;exitDy=0;exitPerimeter=0;strokeColor=#FF00FF;strokeWidth=2;" edge="1" parent="WIyWlLk6GJQsqaUBKTNV-1" source="EKX3NH5y6yaSZ-MIIbft-16" target="EKX3NH5y6yaSZ-MIIbft-18">
          <mxGeometry width="50" height="50" relative="1" as="geometry">
            <mxPoint x="285" y="320" as="sourcePoint" />
            <mxPoint x="270" y="280" as="targetPoint" />
            <Array as="points">
              <mxPoint x="230" y="319" />
            </Array>
          </mxGeometry>
        </mxCell>
        <mxCell id="EKX3NH5y6yaSZ-MIIbft-108" value="SET&amp;nbsp;&lt;br&gt;&lt;font style=&quot;font-size: 10px;&quot;&gt;bikesOnTrip = 0&lt;/font&gt;" style="rounded=1;whiteSpace=wrap;html=1;strokeColor=#3399FF;strokeWidth=2;" vertex="1" parent="WIyWlLk6GJQsqaUBKTNV-1">
          <mxGeometry x="300" y="740" width="100" height="40" as="geometry" />
        </mxCell>
        <mxCell id="EKX3NH5y6yaSZ-MIIbft-109" value="SET&amp;nbsp;&lt;br&gt;&lt;font style=&quot;font-size: 10px;&quot;&gt;bikesOnTrip 1-100&lt;/font&gt;" style="rounded=1;whiteSpace=wrap;html=1;strokeColor=#3399FF;strokeWidth=2;" vertex="1" parent="WIyWlLk6GJQsqaUBKTNV-1">
          <mxGeometry x="300" y="810" width="100" height="40" as="geometry" />
        </mxCell>
        <mxCell id="EKX3NH5y6yaSZ-MIIbft-110" value="INVALID" style="rounded=1;whiteSpace=wrap;html=1;fillStyle=hatch;fillColor=#696969;" vertex="1" parent="WIyWlLk6GJQsqaUBKTNV-1">
          <mxGeometry x="300" y="880" width="100" height="40" as="geometry" />
        </mxCell>
        <mxCell id="EKX3NH5y6yaSZ-MIIbft-112" value="0" style="text;strokeColor=none;align=center;fillColor=none;html=1;verticalAlign=middle;whiteSpace=wrap;rounded=0;rotation=-45;fontStyle=1;fontColor=#009900;" vertex="1" parent="WIyWlLk6GJQsqaUBKTNV-1">
          <mxGeometry x="264" y="780" width="6" height="10" as="geometry" />
        </mxCell>
        <mxCell id="EKX3NH5y6yaSZ-MIIbft-113" value="&lt;font style=&quot;font-size: 8px;&quot;&gt;1-100&lt;/font&gt;" style="text;strokeColor=none;align=center;fillColor=none;html=1;verticalAlign=middle;whiteSpace=wrap;rounded=0;rotation=0;fontStyle=1;fontColor=#009900;" vertex="1" parent="WIyWlLk6GJQsqaUBKTNV-1">
          <mxGeometry x="260" y="820" width="27.73" height="10" as="geometry" />
        </mxCell>
        <mxCell id="EKX3NH5y6yaSZ-MIIbft-114" value="&lt;font color=&quot;#ff5533&quot;&gt;&quot;a&quot;&lt;/font&gt;" style="text;strokeColor=none;align=center;fillColor=none;html=1;verticalAlign=middle;whiteSpace=wrap;rounded=0;rotation=25;" vertex="1" parent="WIyWlLk6GJQsqaUBKTNV-1">
          <mxGeometry x="267.64" y="870" width="17.36" height="20" as="geometry" />
        </mxCell>
        <mxCell id="EKX3NH5y6yaSZ-MIIbft-116" value="" style="endArrow=classic;html=1;rounded=0;entryX=0;entryY=0;entryDx=0;entryDy=0;fillColor=#f8cecc;strokeColor=#b85450;" edge="1" parent="WIyWlLk6GJQsqaUBKTNV-1" target="EKX3NH5y6yaSZ-MIIbft-110">
          <mxGeometry width="50" height="50" relative="1" as="geometry">
            <mxPoint x="260" y="860" as="sourcePoint" />
            <mxPoint x="174.32999999999998" y="965" as="targetPoint" />
          </mxGeometry>
        </mxCell>
        <mxCell id="EKX3NH5y6yaSZ-MIIbft-118" value="" style="endArrow=classic;html=1;rounded=0;entryX=0;entryY=0.5;entryDx=0;entryDy=0;" edge="1" parent="WIyWlLk6GJQsqaUBKTNV-1" target="EKX3NH5y6yaSZ-MIIbft-108">
          <mxGeometry width="50" height="50" relative="1" as="geometry">
            <mxPoint x="253" y="810" as="sourcePoint" />
            <mxPoint x="210" y="690" as="targetPoint" />
            <Array as="points" />
          </mxGeometry>
        </mxCell>
        <mxCell id="EKX3NH5y6yaSZ-MIIbft-119" value="" style="endArrow=classic;html=1;rounded=0;exitX=1;exitY=0.5;exitDx=0;exitDy=0;entryX=1;entryY=1;entryDx=0;entryDy=0;strokeColor=#FF00FF;strokeWidth=2;" edge="1" parent="WIyWlLk6GJQsqaUBKTNV-1" source="EKX3NH5y6yaSZ-MIIbft-21" target="EKX3NH5y6yaSZ-MIIbft-48">
          <mxGeometry width="50" height="50" relative="1" as="geometry">
            <mxPoint x="160" y="460" as="sourcePoint" />
            <mxPoint x="210" y="410" as="targetPoint" />
            <Array as="points">
              <mxPoint x="430" y="385" />
              <mxPoint x="430" y="510" />
            </Array>
          </mxGeometry>
        </mxCell>
        <mxCell id="EKX3NH5y6yaSZ-MIIbft-120" value="" style="endArrow=classic;html=1;rounded=0;exitX=0.5;exitY=1;exitDx=0;exitDy=0;entryX=0.861;entryY=0.522;entryDx=0;entryDy=0;entryPerimeter=0;strokeColor=#FF00FF;strokeWidth=2;" edge="1" parent="WIyWlLk6GJQsqaUBKTNV-1" source="EKX3NH5y6yaSZ-MIIbft-22" target="EKX3NH5y6yaSZ-MIIbft-48">
          <mxGeometry width="50" height="50" relative="1" as="geometry">
            <mxPoint x="160" y="460" as="sourcePoint" />
            <mxPoint x="210" y="410" as="targetPoint" />
            <Array as="points">
              <mxPoint x="350" y="486" />
              <mxPoint x="300" y="486" />
            </Array>
          </mxGeometry>
        </mxCell>
        <mxCell id="EKX3NH5y6yaSZ-MIIbft-122" value="" style="edgeStyle=segmentEdgeStyle;endArrow=classic;html=1;curved=0;rounded=0;endSize=8;startSize=8;entryX=0.355;entryY=0.994;entryDx=0;entryDy=0;entryPerimeter=0;strokeWidth=2;strokeColor=#4D4D4D;dashed=1;" edge="1" parent="WIyWlLk6GJQsqaUBKTNV-1" target="EKX3NH5y6yaSZ-MIIbft-50">
          <mxGeometry width="50" height="50" relative="1" as="geometry">
            <mxPoint x="112.27000000000001" y="747.5" as="sourcePoint" />
            <mxPoint x="180" y="700" as="targetPoint" />
            <Array as="points">
              <mxPoint x="183" y="747" />
              <mxPoint x="183" y="697" />
            </Array>
          </mxGeometry>
        </mxCell>
        <mxCell id="EKX3NH5y6yaSZ-MIIbft-125" value="" style="endArrow=classic;html=1;rounded=0;strokeColor=#FF00FF;strokeWidth=2;entryX=0.516;entryY=-0.027;entryDx=0;entryDy=0;entryPerimeter=0;" edge="1" parent="WIyWlLk6GJQsqaUBKTNV-1" target="EKX3NH5y6yaSZ-MIIbft-126">
          <mxGeometry width="50" height="50" relative="1" as="geometry">
            <mxPoint x="190" y="860" as="sourcePoint" />
            <mxPoint x="200" y="970" as="targetPoint" />
          </mxGeometry>
        </mxCell>
        <mxCell id="EKX3NH5y6yaSZ-MIIbft-129" value="" style="edgeStyle=orthogonalEdgeStyle;rounded=0;orthogonalLoop=1;jettySize=auto;html=1;" edge="1" parent="WIyWlLk6GJQsqaUBKTNV-1" source="EKX3NH5y6yaSZ-MIIbft-126" target="EKX3NH5y6yaSZ-MIIbft-128">
          <mxGeometry relative="1" as="geometry">
            <Array as="points">
              <mxPoint x="-10" y="1025" />
              <mxPoint x="-10" y="1025" />
            </Array>
          </mxGeometry>
        </mxCell>
        <mxCell id="EKX3NH5y6yaSZ-MIIbft-126" value="&lt;span style=&quot;white-space: pre;&quot;&gt;&#x9;&lt;/span&gt;&lt;b&gt;&lt;font color=&quot;#3399ff&quot;&gt;CALCULATE&lt;/font&gt;&lt;/b&gt; &lt;b&gt;&lt;font color=&quot;#106b11&quot;&gt;adultFare&lt;/font&gt;&lt;/b&gt; &amp;lt;setprecision&amp;gt;(2)&lt;br&gt;&lt;span style=&quot;white-space: pre;&quot;&gt;&#x9;&lt;/span&gt;• if adultsOnTrip &amp;lt; 0, then print error&lt;br&gt;&lt;span style=&quot;white-space: pre;&quot;&gt;&#x9;&lt;/span&gt;• if adultsOnTrip == 0, then&amp;nbsp;&lt;br&gt;&lt;span style=&quot;white-space: pre;&quot;&gt;&#x9;&lt;span style=&quot;white-space: pre;&quot;&gt;&#x9;&lt;/span&gt;&lt;/span&gt;adultFare = $0.00&lt;br&gt;&lt;span style=&quot;white-space: pre;&quot;&gt;&#x9;&lt;/span&gt;• if adultsOnTrip ==&amp;nbsp;1-100, then adultFare &lt;span style=&quot;white-space: pre;&quot;&gt;&#x9;&lt;/span&gt;&lt;span style=&quot;white-space: pre;&quot;&gt;&#x9;&lt;/span&gt;= &lt;span style=&quot;white-space: pre;&quot;&gt;&#x9;&lt;/span&gt;&lt;span style=&quot;white-space: pre;&quot;&gt;&#x9;&lt;/span&gt;adultsFare = adultsOnTrip* 14.95&amp;nbsp;&lt;br&gt;&lt;span style=&quot;white-space: pre;&quot;&gt;&#x9;&lt;/span&gt;• else adultsOnTrip &amp;gt; 100, then print&amp;nbsp;&lt;br&gt;&lt;span style=&quot;white-space: pre;&quot;&gt;&#x9;&lt;/span&gt;&lt;span style=&quot;white-space: pre;&quot;&gt;&#x9;&lt;/span&gt;&quot;That&#39;s a lot of adults! Please give us a call for larger &lt;span style=&quot;white-space: pre;&quot;&gt;&#x9;&lt;/span&gt;&lt;span style=&quot;white-space: pre;&quot;&gt;&#x9;&lt;/span&gt;arrangements.&quot;" style="shape=parallelogram;perimeter=parallelogramPerimeter;whiteSpace=wrap;html=1;fixedSize=1;align=left;" vertex="1" parent="WIyWlLk6GJQsqaUBKTNV-1">
          <mxGeometry y="960" width="370" height="140" as="geometry" />
        </mxCell>
        <mxCell id="EKX3NH5y6yaSZ-MIIbft-127" value="&lt;span style=&quot;&quot;&gt;&lt;span style=&quot;&quot;&gt;&amp;nbsp;&amp;nbsp;&amp;nbsp;&amp;nbsp;&lt;span style=&quot;&quot;&gt;&lt;span style=&quot;&quot;&gt;&amp;nbsp;&amp;nbsp;&amp;nbsp;&amp;nbsp;&lt;/span&gt;&lt;/span&gt;&lt;/span&gt;&lt;/span&gt;&lt;font color=&quot;#3399ff&quot;&gt;&lt;b&gt;CALCULATE&lt;/b&gt;&lt;/font&gt; &lt;b&gt;&lt;font color=&quot;#106b11&quot;&gt;seniorFare&lt;/font&gt;&lt;/b&gt; &amp;lt;setprecision&amp;gt;(2)&lt;br&gt;&lt;span style=&quot;&quot;&gt;&lt;span style=&quot;&quot;&gt;&amp;nbsp;&amp;nbsp;&amp;nbsp;&lt;span style=&quot;&quot;&gt;&lt;span style=&quot;&quot;&gt;&amp;nbsp;&amp;nbsp;&amp;nbsp;&amp;nbsp;&lt;/span&gt;&lt;/span&gt;&lt;/span&gt;&lt;/span&gt;• if seniorsOnTrip &amp;lt; 0, then print error&lt;br&gt;&lt;span style=&quot;&quot;&gt;&lt;span style=&quot;&quot;&gt;&amp;nbsp;&amp;nbsp;&lt;span style=&quot;&quot;&gt;&lt;span style=&quot;&quot;&gt;&amp;nbsp;&amp;nbsp;&amp;nbsp;&amp;nbsp;&lt;/span&gt;&lt;/span&gt;&amp;nbsp;&lt;/span&gt;&lt;/span&gt;• if seniorsOnTrip&amp;nbsp;== 0, then&amp;nbsp;&lt;br&gt;&lt;span style=&quot;&quot;&gt;&lt;span style=&quot;&quot;&gt;&amp;nbsp;&amp;nbsp;&amp;nbsp;&amp;nbsp;&lt;/span&gt;&lt;span style=&quot;&quot;&gt;&lt;span style=&quot;&quot;&gt;&amp;nbsp;&amp;nbsp;&lt;span style=&quot;&quot;&gt;&lt;span style=&quot;&quot;&gt;&amp;nbsp;&amp;nbsp;&amp;nbsp;&amp;nbsp;&lt;/span&gt;&lt;/span&gt;&lt;span style=&quot;&quot;&gt;&lt;span style=&quot;&quot;&gt;&amp;nbsp;&amp;nbsp;&amp;nbsp;&amp;nbsp;&lt;/span&gt;&lt;/span&gt;&amp;nbsp;&amp;nbsp;&lt;/span&gt;&lt;/span&gt;&lt;/span&gt;seniorFare&amp;nbsp;= $0.00&lt;br&gt;&lt;span style=&quot;&quot;&gt;&lt;span style=&quot;&quot;&gt;&amp;nbsp;&amp;nbsp;&lt;span style=&quot;&quot;&gt;&lt;span style=&quot;&quot;&gt;&amp;nbsp;&amp;nbsp;&amp;nbsp;&amp;nbsp;&lt;/span&gt;&lt;/span&gt;&amp;nbsp;&lt;/span&gt;&lt;/span&gt;• if seniorsOnTrip&amp;nbsp;==&amp;nbsp;1-100, then &lt;br&gt;&lt;span style=&quot;&quot;&gt;&lt;span style=&quot;&quot;&gt;&amp;nbsp;&amp;nbsp;&amp;nbsp;&amp;nbsp;&lt;/span&gt;&lt;/span&gt;&lt;span style=&quot;&quot;&gt;&lt;span style=&quot;&quot;&gt;&amp;nbsp;&amp;nbsp;&amp;nbsp;&amp;nbsp;&lt;/span&gt;&amp;nbsp;&lt;/span&gt;&amp;nbsp;&lt;span style=&quot;white-space: pre;&quot;&gt;&#x9;&lt;/span&gt;seniorFare&amp;nbsp;= seniorsOnTrip* 14.95&amp;nbsp;&lt;br&gt;&lt;span style=&quot;&quot;&gt;&lt;span style=&quot;&quot;&gt;&amp;nbsp;&amp;nbsp;&amp;nbsp;&amp;nbsp;&lt;span style=&quot;&quot;&gt;&lt;span style=&quot;&quot;&gt;&amp;nbsp;&amp;nbsp;&amp;nbsp;&amp;nbsp;&lt;/span&gt;&lt;/span&gt;&lt;/span&gt;&lt;/span&gt;•else seniorsOnTrip&amp;nbsp;&amp;gt; 100, then print&amp;nbsp;&lt;br&gt;&lt;span style=&quot;&quot;&gt;&lt;span style=&quot;&quot;&gt;&amp;nbsp;&amp;nbsp;&amp;nbsp;&amp;nbsp;&lt;/span&gt;&lt;/span&gt;&lt;span style=&quot;&quot;&gt;&lt;span style=&quot;&quot;&gt;&amp;nbsp;&amp;nbsp;&amp;nbsp;&amp;nbsp;&lt;span style=&quot;white-space: pre;&quot;&gt;&#x9;&lt;/span&gt;&lt;/span&gt;&lt;/span&gt;&quot;That&#39;s a lot of seniors! Please give us a call for larger &lt;span style=&quot;&quot;&gt;&lt;span style=&quot;&quot;&gt;&amp;nbsp;&amp;nbsp;&amp;nbsp;&amp;nbsp;&lt;/span&gt;&lt;/span&gt;&lt;span style=&quot;&quot;&gt;&lt;span style=&quot;&quot;&gt;&amp;nbsp;&amp;nbsp;&amp;nbsp;&amp;nbsp;&lt;span style=&quot;white-space: pre;&quot;&gt;&#x9;&lt;/span&gt;&lt;/span&gt;&lt;/span&gt;arrangements.&quot;" style="shape=parallelogram;perimeter=parallelogramPerimeter;whiteSpace=wrap;html=1;fixedSize=1;align=left;" vertex="1" parent="WIyWlLk6GJQsqaUBKTNV-1">
          <mxGeometry x="-10" y="1150" width="370" height="140" as="geometry" />
        </mxCell>
        <mxCell id="EKX3NH5y6yaSZ-MIIbft-128" value="SET&lt;br&gt;adultFare" style="rounded=1;whiteSpace=wrap;html=1;strokeWidth=2;strokeColor=#3399FF;" vertex="1" parent="WIyWlLk6GJQsqaUBKTNV-1">
          <mxGeometry x="-160" y="995" width="120" height="60" as="geometry" />
        </mxCell>
        <mxCell id="EKX3NH5y6yaSZ-MIIbft-130" value="" style="edgeStyle=orthogonalEdgeStyle;rounded=0;orthogonalLoop=1;jettySize=auto;html=1;strokeWidth=2;strokeColor=#FF00FF;" edge="1" target="EKX3NH5y6yaSZ-MIIbft-131" parent="WIyWlLk6GJQsqaUBKTNV-1">
          <mxGeometry relative="1" as="geometry">
            <mxPoint y="1220" as="sourcePoint" />
            <Array as="points">
              <mxPoint x="-21" y="1220" />
              <mxPoint x="-21" y="1220" />
            </Array>
          </mxGeometry>
        </mxCell>
        <mxCell id="EKX3NH5y6yaSZ-MIIbft-131" value="SET&lt;br&gt;seniorFare" style="rounded=1;whiteSpace=wrap;html=1;strokeWidth=2;strokeColor=#3399FF;" vertex="1" parent="WIyWlLk6GJQsqaUBKTNV-1">
          <mxGeometry x="-171" y="1190" width="120" height="60" as="geometry" />
        </mxCell>
        <mxCell id="EKX3NH5y6yaSZ-MIIbft-132" value="" style="edgeStyle=segmentEdgeStyle;endArrow=classic;html=1;curved=0;rounded=0;endSize=8;startSize=8;entryX=0.046;entryY=0.098;entryDx=0;entryDy=0;entryPerimeter=0;exitX=0.5;exitY=1;exitDx=0;exitDy=0;strokeWidth=2;strokeColor=#FF00FF;" edge="1" parent="WIyWlLk6GJQsqaUBKTNV-1" source="EKX3NH5y6yaSZ-MIIbft-128" target="EKX3NH5y6yaSZ-MIIbft-127">
          <mxGeometry width="50" height="50" relative="1" as="geometry">
            <mxPoint x="-100" y="1060" as="sourcePoint" />
            <mxPoint x="-10" y="1130" as="targetPoint" />
            <Array as="points">
              <mxPoint x="-100" y="1164" />
            </Array>
          </mxGeometry>
        </mxCell>
        <mxCell id="EKX3NH5y6yaSZ-MIIbft-133" value="" style="edgeStyle=segmentEdgeStyle;endArrow=classic;html=1;curved=0;rounded=0;endSize=8;startSize=8;entryX=0.046;entryY=0.098;entryDx=0;entryDy=0;entryPerimeter=0;exitX=0.5;exitY=1;exitDx=0;exitDy=0;strokeWidth=2;strokeColor=#FF00FF;" edge="1" parent="WIyWlLk6GJQsqaUBKTNV-1">
          <mxGeometry width="50" height="50" relative="1" as="geometry">
            <mxPoint x="-97" y="1250" as="sourcePoint" />
            <mxPoint x="10" y="1359" as="targetPoint" />
            <Array as="points">
              <mxPoint x="-97" y="1359" />
            </Array>
          </mxGeometry>
        </mxCell>
        <mxCell id="EKX3NH5y6yaSZ-MIIbft-134" value="&lt;span style=&quot;&quot;&gt;&lt;span style=&quot;&quot;&gt;&amp;nbsp;&amp;nbsp;&amp;nbsp;&amp;nbsp;&lt;span style=&quot;&quot;&gt;&lt;span style=&quot;&quot;&gt;&amp;nbsp;&amp;nbsp;&amp;nbsp;&amp;nbsp;&lt;/span&gt;&lt;/span&gt;&lt;/span&gt;&lt;/span&gt;&lt;font color=&quot;#3399ff&quot;&gt;&lt;b&gt;CALCULATE&lt;/b&gt;&lt;/font&gt; &lt;font color=&quot;#106b11&quot;&gt;&lt;b&gt;youthFare&lt;/b&gt;&lt;/font&gt; &amp;lt;setprecision&amp;gt;(2)&lt;br&gt;&lt;span style=&quot;&quot;&gt;&lt;span style=&quot;&quot;&gt;&amp;nbsp;&amp;nbsp;&amp;nbsp;&lt;span style=&quot;&quot;&gt;&lt;span style=&quot;&quot;&gt;&amp;nbsp;&amp;nbsp;&amp;nbsp;&amp;nbsp;&lt;/span&gt;&lt;/span&gt;&lt;/span&gt;&lt;/span&gt;• if youthsOnTrip &amp;lt; 0, then print error&lt;br&gt;&lt;span style=&quot;&quot;&gt;&lt;span style=&quot;&quot;&gt;&amp;nbsp;&amp;nbsp;&lt;span style=&quot;&quot;&gt;&lt;span style=&quot;&quot;&gt;&amp;nbsp;&amp;nbsp;&amp;nbsp;&amp;nbsp;&lt;/span&gt;&lt;/span&gt;&amp;nbsp;&lt;/span&gt;&lt;/span&gt;• if youthsOnTrip&amp;nbsp;== 0, then&amp;nbsp;&lt;br&gt;&lt;span style=&quot;&quot;&gt;&lt;span style=&quot;&quot;&gt;&amp;nbsp;&amp;nbsp;&amp;nbsp;&amp;nbsp;&lt;/span&gt;&lt;span style=&quot;&quot;&gt;&lt;span style=&quot;&quot;&gt;&amp;nbsp;&amp;nbsp;&lt;span style=&quot;&quot;&gt;&lt;span style=&quot;&quot;&gt;&amp;nbsp;&amp;nbsp;&amp;nbsp;&amp;nbsp;&lt;/span&gt;&lt;/span&gt;&lt;span style=&quot;&quot;&gt;&lt;span style=&quot;&quot;&gt;&amp;nbsp;&amp;nbsp;&amp;nbsp;&amp;nbsp;&lt;/span&gt;&lt;/span&gt;&amp;nbsp;&amp;nbsp;&lt;/span&gt;&lt;/span&gt;&lt;/span&gt;youthFare&amp;nbsp;= $0.00&lt;br&gt;&lt;span style=&quot;&quot;&gt;&lt;span style=&quot;&quot;&gt;&amp;nbsp;&amp;nbsp;&lt;span style=&quot;&quot;&gt;&lt;span style=&quot;&quot;&gt;&amp;nbsp;&amp;nbsp;&amp;nbsp;&amp;nbsp;&lt;/span&gt;&lt;/span&gt;&amp;nbsp;&lt;/span&gt;&lt;/span&gt;• if youthsOnTrip&amp;nbsp;==&amp;nbsp;1-100, then &lt;br&gt;&lt;span style=&quot;&quot;&gt;&lt;span style=&quot;&quot;&gt;&amp;nbsp;&amp;nbsp;&amp;nbsp;&amp;nbsp;&lt;/span&gt;&lt;/span&gt;&lt;span style=&quot;&quot;&gt;&lt;span style=&quot;&quot;&gt;&amp;nbsp;&amp;nbsp;&amp;nbsp;&amp;nbsp;&lt;/span&gt;&amp;nbsp;&lt;/span&gt;&amp;nbsp;&lt;span style=&quot;&quot;&gt;&lt;span style=&quot;&quot;&gt;&amp;nbsp; &amp;nbsp;&amp;nbsp;&lt;/span&gt;&lt;/span&gt;youthFare&amp;nbsp;= youthsOnTrip * 14.95&amp;nbsp;&lt;br&gt;&lt;span style=&quot;&quot;&gt;&lt;span style=&quot;&quot;&gt;&amp;nbsp;&amp;nbsp;&amp;nbsp;&amp;nbsp;&lt;span style=&quot;&quot;&gt;&lt;span style=&quot;&quot;&gt;&amp;nbsp;&amp;nbsp;&amp;nbsp;&amp;nbsp;&lt;/span&gt;&lt;/span&gt;&lt;/span&gt;&lt;/span&gt;•else youthsOnTrip&amp;nbsp;&amp;gt; 100, then print&amp;nbsp;&lt;br&gt;&lt;span style=&quot;&quot;&gt;&lt;span style=&quot;&quot;&gt;&amp;nbsp;&amp;nbsp;&amp;nbsp;&amp;nbsp;&lt;/span&gt;&lt;/span&gt;&lt;span style=&quot;&quot;&gt;&lt;span style=&quot;&quot;&gt;&amp;nbsp;&amp;nbsp;&amp;nbsp;&amp;nbsp;&lt;span style=&quot;&quot;&gt;&lt;span style=&quot;&quot;&gt;&amp;nbsp;&amp;nbsp;&amp;nbsp;&amp;nbsp;&lt;/span&gt;&lt;/span&gt;&lt;/span&gt;&lt;/span&gt;&quot;That&#39;s a lot of kids! Please give us a call for larger &lt;span style=&quot;&quot;&gt;&lt;span style=&quot;&quot;&gt;&amp;nbsp;&amp;nbsp;&amp;nbsp;&amp;nbsp;&lt;/span&gt;&lt;/span&gt;&lt;span style=&quot;&quot;&gt;&lt;span style=&quot;&quot;&gt;&amp;nbsp;&amp;nbsp;&amp;nbsp;&amp;nbsp;&lt;span style=&quot;&quot;&gt;&lt;span style=&quot;&quot;&gt;&amp;nbsp;&amp;nbsp;&amp;nbsp;&amp;nbsp;&lt;/span&gt;&lt;/span&gt;&lt;/span&gt;&lt;/span&gt;arrangements.&quot;" style="shape=parallelogram;perimeter=parallelogramPerimeter;whiteSpace=wrap;html=1;fixedSize=1;align=left;" vertex="1" parent="WIyWlLk6GJQsqaUBKTNV-1">
          <mxGeometry x="-10" y="1350" width="370" height="140" as="geometry" />
        </mxCell>
        <mxCell id="EKX3NH5y6yaSZ-MIIbft-135" value="" style="edgeStyle=orthogonalEdgeStyle;rounded=0;orthogonalLoop=1;jettySize=auto;html=1;strokeWidth=2;strokeColor=#FF00FF;" edge="1" target="EKX3NH5y6yaSZ-MIIbft-136" parent="WIyWlLk6GJQsqaUBKTNV-1">
          <mxGeometry relative="1" as="geometry">
            <mxPoint y="1430" as="sourcePoint" />
            <Array as="points">
              <mxPoint x="-21" y="1430" />
              <mxPoint x="-21" y="1430" />
            </Array>
          </mxGeometry>
        </mxCell>
        <mxCell id="EKX3NH5y6yaSZ-MIIbft-136" value="SET&lt;br&gt;youthFare" style="rounded=1;whiteSpace=wrap;html=1;strokeWidth=2;strokeColor=#3399FF;" vertex="1" parent="WIyWlLk6GJQsqaUBKTNV-1">
          <mxGeometry x="-171" y="1400" width="120" height="60" as="geometry" />
        </mxCell>
        <mxCell id="EKX3NH5y6yaSZ-MIIbft-137" value="" style="edgeStyle=segmentEdgeStyle;endArrow=classic;html=1;curved=0;rounded=0;endSize=8;startSize=8;entryX=0.046;entryY=0.098;entryDx=0;entryDy=0;entryPerimeter=0;exitX=0.5;exitY=1;exitDx=0;exitDy=0;strokeWidth=2;strokeColor=#FF00FF;" edge="1" parent="WIyWlLk6GJQsqaUBKTNV-1">
          <mxGeometry width="50" height="50" relative="1" as="geometry">
            <mxPoint x="-97" y="1460" as="sourcePoint" />
            <mxPoint x="10" y="1569" as="targetPoint" />
            <Array as="points">
              <mxPoint x="-97" y="1569" />
            </Array>
          </mxGeometry>
        </mxCell>
        <mxCell id="EKX3NH5y6yaSZ-MIIbft-147" value="" style="edgeStyle=orthogonalEdgeStyle;rounded=0;orthogonalLoop=1;jettySize=auto;html=1;" edge="1" parent="WIyWlLk6GJQsqaUBKTNV-1" source="EKX3NH5y6yaSZ-MIIbft-138" target="EKX3NH5y6yaSZ-MIIbft-142">
          <mxGeometry relative="1" as="geometry" />
        </mxCell>
        <mxCell id="EKX3NH5y6yaSZ-MIIbft-138" value="&lt;span style=&quot;&quot;&gt;&lt;span style=&quot;&quot;&gt;&amp;nbsp;&amp;nbsp;&amp;nbsp;&amp;nbsp;&lt;span style=&quot;&quot;&gt;&lt;span style=&quot;&quot;&gt;&amp;nbsp;&amp;nbsp;&amp;nbsp;&amp;nbsp;&lt;/span&gt;&lt;/span&gt;&lt;/span&gt;&lt;/span&gt;&lt;font color=&quot;#3399ff&quot;&gt;&lt;b&gt;CALCULATE&lt;/b&gt;&lt;/font&gt; &lt;b&gt;&lt;font color=&quot;#106b11&quot;&gt;bicycleFare&lt;/font&gt;&lt;/b&gt; &amp;lt;setprecision&amp;gt;(2)&lt;br&gt;&lt;span style=&quot;&quot;&gt;&lt;span style=&quot;&quot;&gt;&amp;nbsp;&amp;nbsp;&amp;nbsp;&lt;span style=&quot;&quot;&gt;&lt;span style=&quot;&quot;&gt;&amp;nbsp;&amp;nbsp;&amp;nbsp;&amp;nbsp;&lt;/span&gt;&lt;/span&gt;&lt;/span&gt;&lt;/span&gt;• if bicyclesOnTrip &amp;lt; 0, then print error&lt;br&gt;&lt;span style=&quot;&quot;&gt;&lt;span style=&quot;&quot;&gt;&amp;nbsp;&amp;nbsp;&lt;span style=&quot;&quot;&gt;&lt;span style=&quot;&quot;&gt;&amp;nbsp;&amp;nbsp;&amp;nbsp;&amp;nbsp;&lt;/span&gt;&lt;/span&gt;&amp;nbsp;&lt;/span&gt;&lt;/span&gt;• if bicyclesOnTrip&amp;nbsp;== 0, then&amp;nbsp;&lt;br&gt;&lt;span style=&quot;&quot;&gt;&lt;span style=&quot;&quot;&gt;&amp;nbsp;&amp;nbsp;&amp;nbsp;&amp;nbsp;&lt;/span&gt;&lt;span style=&quot;&quot;&gt;&lt;span style=&quot;&quot;&gt;&amp;nbsp;&amp;nbsp;&lt;span style=&quot;&quot;&gt;&lt;span style=&quot;&quot;&gt;&amp;nbsp;&amp;nbsp;&amp;nbsp;&amp;nbsp;&lt;/span&gt;&lt;/span&gt;&lt;span style=&quot;&quot;&gt;&lt;span style=&quot;&quot;&gt;&amp;nbsp;&amp;nbsp;&amp;nbsp;&amp;nbsp;&lt;/span&gt;&lt;/span&gt;&amp;nbsp;&amp;nbsp;&lt;/span&gt;&lt;/span&gt;&lt;/span&gt;bicycleFare&amp;nbsp;= $0.00&lt;br&gt;&lt;span style=&quot;&quot;&gt;&lt;span style=&quot;&quot;&gt;&amp;nbsp;&amp;nbsp;&lt;span style=&quot;&quot;&gt;&lt;span style=&quot;&quot;&gt;&amp;nbsp;&amp;nbsp;&amp;nbsp;&amp;nbsp;&lt;/span&gt;&lt;/span&gt;&amp;nbsp;&lt;/span&gt;&lt;/span&gt;• if bicyclesOnTrip&amp;nbsp;==&amp;nbsp;1-100, then &lt;br&gt;&lt;span style=&quot;&quot;&gt;&lt;span style=&quot;&quot;&gt;&amp;nbsp;&amp;nbsp;&amp;nbsp;&amp;nbsp;&lt;/span&gt;&lt;/span&gt;&lt;span style=&quot;&quot;&gt;&lt;span style=&quot;&quot;&gt;&amp;nbsp;&amp;nbsp;&amp;nbsp;&amp;nbsp;&lt;/span&gt;&amp;nbsp;&lt;/span&gt;&amp;nbsp;&lt;span style=&quot;&quot;&gt;&lt;span style=&quot;&quot;&gt;&amp;nbsp; &amp;nbsp;&amp;nbsp;&lt;/span&gt;&lt;/span&gt;bicycleFare&amp;nbsp;= bicyclesOnTrip * 14.95&amp;nbsp;&lt;br&gt;&lt;span style=&quot;&quot;&gt;&lt;span style=&quot;&quot;&gt;&amp;nbsp;&amp;nbsp;&amp;nbsp;&amp;nbsp;&lt;span style=&quot;&quot;&gt;&lt;span style=&quot;&quot;&gt;&amp;nbsp;&amp;nbsp;&amp;nbsp;&amp;nbsp;&lt;/span&gt;&lt;/span&gt;&lt;/span&gt;&lt;/span&gt;•else bicyclesOnTrip&amp;nbsp;&amp;gt; 100, then print&amp;nbsp;&lt;br&gt;&lt;span style=&quot;&quot;&gt;&lt;span style=&quot;&quot;&gt;&amp;nbsp;&amp;nbsp;&amp;nbsp;&amp;nbsp;&lt;/span&gt;&lt;/span&gt;&lt;span style=&quot;&quot;&gt;&lt;span style=&quot;&quot;&gt;&amp;nbsp;&amp;nbsp;&amp;nbsp;&amp;nbsp;&lt;span style=&quot;&quot;&gt;&lt;span style=&quot;&quot;&gt;&amp;nbsp;&amp;nbsp;&amp;nbsp;&amp;nbsp;&lt;/span&gt;&lt;/span&gt;&lt;/span&gt;&lt;/span&gt;&quot;That&#39;s a lot of bikes! Please give us a call for larger &lt;span style=&quot;&quot;&gt;&lt;span style=&quot;&quot;&gt;&amp;nbsp;&amp;nbsp;&amp;nbsp;&amp;nbsp;&lt;/span&gt;&lt;/span&gt;&lt;span style=&quot;&quot;&gt;&lt;span style=&quot;&quot;&gt;&amp;nbsp;&amp;nbsp;&amp;nbsp;&amp;nbsp;&lt;span style=&quot;&quot;&gt;&lt;span style=&quot;&quot;&gt;&amp;nbsp;&amp;nbsp;&amp;nbsp;&amp;nbsp;&lt;/span&gt;&lt;/span&gt;&lt;/span&gt;&lt;/span&gt;arrangements.&quot;" style="shape=parallelogram;perimeter=parallelogramPerimeter;whiteSpace=wrap;html=1;fixedSize=1;align=left;" vertex="1" parent="WIyWlLk6GJQsqaUBKTNV-1">
          <mxGeometry x="-10" y="1560" width="370" height="140" as="geometry" />
        </mxCell>
        <mxCell id="EKX3NH5y6yaSZ-MIIbft-141" value="" style="edgeStyle=orthogonalEdgeStyle;rounded=0;orthogonalLoop=1;jettySize=auto;html=1;strokeWidth=2;strokeColor=#FF00FF;" edge="1" target="EKX3NH5y6yaSZ-MIIbft-142" parent="WIyWlLk6GJQsqaUBKTNV-1">
          <mxGeometry relative="1" as="geometry">
            <mxPoint y="1630" as="sourcePoint" />
            <Array as="points">
              <mxPoint x="-21" y="1630" />
              <mxPoint x="-21" y="1630" />
            </Array>
          </mxGeometry>
        </mxCell>
        <mxCell id="EKX3NH5y6yaSZ-MIIbft-142" value="SET&lt;br&gt;bicycleFare" style="rounded=1;whiteSpace=wrap;html=1;strokeWidth=2;strokeColor=#3399FF;" vertex="1" parent="WIyWlLk6GJQsqaUBKTNV-1">
          <mxGeometry x="-171" y="1600" width="120" height="60" as="geometry" />
        </mxCell>
        <mxCell id="EKX3NH5y6yaSZ-MIIbft-143" value="" style="edgeStyle=segmentEdgeStyle;endArrow=classic;html=1;curved=0;rounded=0;endSize=8;startSize=8;exitX=0.5;exitY=1;exitDx=0;exitDy=0;strokeWidth=2;strokeColor=#FF00FF;" edge="1" parent="WIyWlLk6GJQsqaUBKTNV-1" target="EKX3NH5y6yaSZ-MIIbft-145">
          <mxGeometry width="50" height="50" relative="1" as="geometry">
            <mxPoint x="-97" y="1660" as="sourcePoint" />
            <mxPoint x="-20" y="1769" as="targetPoint" />
            <Array as="points">
              <mxPoint x="-97" y="1769" />
            </Array>
          </mxGeometry>
        </mxCell>
        <mxCell id="EKX3NH5y6yaSZ-MIIbft-145" value="&lt;div style=&quot;text-align: left;&quot;&gt;&lt;span style=&quot;background-color: initial;&quot;&gt;&lt;span style=&quot;white-space: pre;&quot;&gt;&#x9;&lt;/span&gt;&lt;b&gt;&lt;font color=&quot;#3399ff&quot;&gt;CALCULATE&lt;/font&gt;&lt;/b&gt; &lt;font color=&quot;#106b11&quot;&gt;&lt;b&gt;totalCost&lt;/b&gt;&lt;/font&gt; &amp;lt;setprecision&amp;gt;(2)&lt;/span&gt;&lt;/div&gt;&lt;div style=&quot;text-align: left;&quot;&gt;&lt;span style=&quot;background-color: initial;&quot;&gt;&lt;span style=&quot;white-space: pre;&quot;&gt;&#x9;&lt;/span&gt;• totalCost = vehicleFare + adultFare + seniorFare + youthFare &lt;span style=&quot;white-space: pre;&quot;&gt;&#x9;&lt;/span&gt;+ bicycleFare&lt;/span&gt;&lt;/div&gt;" style="shape=parallelogram;perimeter=parallelogramPerimeter;whiteSpace=wrap;html=1;fixedSize=1;" vertex="1" parent="WIyWlLk6GJQsqaUBKTNV-1">
          <mxGeometry x="-10.46" y="1730" width="370.46" height="140" as="geometry" />
        </mxCell>
      </root>
    </mxGraphModel>
  </diagram>
</mxfile>
